USFL
nRows=108
nColumns=2
inDegrees=yes
endheader
time	soleus_r	
3.07762	 47.753120	
3.14919	 47.594594	
3.22077	 47.529994	
3.29234	 47.508876	
3.36391	 47.614650	
3.43548	 47.590335	
3.50706	 47.601656	
3.57863	 47.585555	
3.6502	 47.589675	
3.72177	 47.535874	
3.79335	 47.494460	
3.86492	 47.779526	
3.93649	 47.810019	
4.00806	 47.812433	
4.07964	 47.825967	
4.15121	 47.793622	
4.22278	 47.883936	
4.29435	 47.819435	
4.36593	 47.740476	
4.4375	 47.480581	
4.50907	 47.352414	
4.58065	 47.353261	
4.65222	 46.772542	
4.72379	 47.061551	
4.79536	 46.808871	
4.86694	 46.803892	
4.93851	 47.165320	
5.01008	 46.997877	
5.08165	 46.475444	
5.15323	 46.897541	
5.2248	 46.407699	
5.29637	 46.476997	
5.36794	 46.520876	
5.43952	 46.389010	
5.51109	 46.217328	
5.58266	 46.657741	
5.65423	 49.329755	
5.72581	 40.354058	
5.79738	 36.497065	
5.86895	 32.580068	
5.94052	 31.944806	
6.0121	 29.626522	
6.08367	 29.852714	
6.15524	 29.176404	
6.22681	 29.265196	
6.29839	 32.323962	
6.36996	 30.701425	
6.44153	 30.085552	
6.5131	 29.383349	
6.58468	 27.225880	
6.65625	 27.333764	
6.72782	 30.287575	
6.7994	 29.348099	
6.87097	 29.065110	
6.94254	 30.418588	
7.01411	 29.533135	
7.08569	 29.605150	
7.15726	 29.239448	
7.22883	 28.809371	
7.3004	 28.931183	
7.37198	 28.909843	
7.44355	 28.661852	
7.51512	 28.801405	
7.58669	 28.509249	
7.65827	 28.940049	
7.72984	 28.939360	
7.80141	 29.106042	
7.87298	 29.017995	
7.94456	 28.994710	
8.01613	 28.849127	
8.0877	 28.854740	
8.15927	 28.848715	
8.23085	 28.950061	
8.30242	 28.662174	
8.37399	 28.466736	
8.44556	 28.405251	
8.51714	 28.398996	
8.58871	 28.265747	
8.66028	 28.894043	
8.73185	 28.207377	
8.80343	 28.179452	
8.875	 28.551147	
8.94657	 28.609761	
9.01815	 28.536789	
9.08972	 28.540725	
9.16129	 28.513644	
9.23286	 28.582801	
9.30444	 28.660443	
9.37601	 28.827189	
9.44758	 28.831062	
9.51915	 28.637757	
9.59073	 28.915872	
9.6623	 28.882650	
9.73387	 28.900444	
9.80544	 28.939663	
9.87702	 28.948451	
9.94859	 27.945869	
10.0202	 26.966971	
10.0917	 26.968381	
10.1633	 28.418731	
10.2349	 28.317290	
10.3065	 28.383684	
10.378	 28.345131	
10.4496	 34.800936	
10.5212	 35.427023	
10.5927	 35.491832	
10.6643	 35.503541	
10.7359	 35.540960	
